<svg xmlns="http://www.w3.org/2000/svg" viewBox="0 0 9 8" shape-rendering="crispEdges">
<rect x="0" y="0" width="1" height="1" fill="#2a1c12"/>
<rect x="8" y="0" width="1" height="1" fill="#2a1c12"/>
<rect x="0" y="1" width="2" height="1" fill="#2a1c12"/>
<rect x="7" y="1" width="2" height="1" fill="#2a1c12"/>
<rect x="1" y="2" width="1" height="1" fill="#2a1c12"/>
<rect x="2" y="2" width="5" height="1" fill="#ef8b1e"/>
<rect x="7" y="2" width="1" height="1" fill="#2a1c12"/>
<rect x="1" y="3" width="1" height="1" fill="#2a1c12"/>
<rect x="2" y="3" width="1" height="1" fill="#ef8b1e"/>
<rect x="3" y="3" width="1" height="1" fill="#2a1c12"/>
<rect x="4" y="3" width="1" height="1" fill="#ef8b1e"/>
<rect x="5" y="3" width="1" height="1" fill="#2a1c12"/>
<rect x="6" y="3" width="1" height="1" fill="#ef8b1e"/>
<rect x="7" y="3" width="1" height="1" fill="#2a1c12"/>
<rect x="1" y="4" width="1" height="1" fill="#2a1c12"/>
<rect x="2" y="4" width="5" height="1" fill="#ef8b1e"/>
<rect x="7" y="4" width="1" height="1" fill="#2a1c12"/>
<rect x="1" y="5" width="1" height="1" fill="#2a1c12"/>
<rect x="2" y="5" width="5" height="1" fill="#ef8b1e"/>
<rect x="7" y="5" width="1" height="1" fill="#2a1c12"/>
<rect x="0" y="6" width="2" height="1" fill="#2a1c12"/>
<rect x="2" y="6" width="5" height="1" fill="#ef8b1e"/>
<rect x="7" y="6" width="2" height="1" fill="#2a1c12"/>
<rect x="0" y="7" width="1" height="1" fill="#2a1c12"/>
<rect x="3" y="7" width="1" height="1" fill="#2a1c12"/>
<rect x="5" y="7" width="1" height="1" fill="#2a1c12"/>
<rect x="8" y="7" width="1" height="1" fill="#2a1c12"/>
</svg>
